<?xml version="1.0" encoding="UTF-8" standalone="no"?>
<svg
   xmlns:dc="http://purl.org/dc/elements/1.1/"
   xmlns:cc="http://creativecommons.org/ns#"
   xmlns:rdf="http://www.w3.org/1999/02/22-rdf-syntax-ns#"
   xmlns:svg="http://www.w3.org/2000/svg"
   xmlns="http://www.w3.org/2000/svg"
   xmlns:sodipodi="http://sodipodi.sourceforge.net/DTD/sodipodi-0.dtd"
   xmlns:inkscape="http://www.inkscape.org/namespaces/inkscape"
   viewBox="0 0 191 90"
   version="1.1"
   id="svg10"
   sodipodi:docname="att.svg"
   inkscape:version="0.92.5 (2060ec1f9f, 2020-04-08)"
   width="191"
   height="90">
  <metadata
     id="metadata16">
    <rdf:RDF>
      <cc:Work
         rdf:about="">
        <dc:format>image/svg+xml</dc:format>
        <dc:type
           rdf:resource="http://purl.org/dc/dcmitype/StillImage" />
        <dc:title></dc:title>
      </cc:Work>
    </rdf:RDF>
  </metadata>
  <defs
     id="defs14">
    <clipPath
       clipPathUnits="userSpaceOnUse"
       id="clipPath22">
      <rect
         id="rect24"
         width="190.1483"
         height="88.453384"
         x="1.059322"
         y="52.436436"
         style="stroke-width:0.94353062" />
    </clipPath>
  </defs>
  <sodipodi:namedview
     pagecolor="#ffffff"
     bordercolor="#666666"
     borderopacity="1"
     objecttolerance="10"
     gridtolerance="10"
     guidetolerance="10"
     inkscape:pageopacity="0"
     inkscape:pageshadow="2"
     inkscape:window-width="3492"
     inkscape:window-height="1924"
     id="namedview12"
     showgrid="false"
     inkscape:zoom="1.888"
     inkscape:cx="-150.95339"
     inkscape:cy="125"
     inkscape:window-x="156"
     inkscape:window-y="54"
     inkscape:window-maximized="1"
     inkscape:current-layer="svg10" />
  <g
     id="g8"
     style="clip-rule:evenodd;fill-rule:evenodd"
     transform="translate(-0.52966098,-50.360168)">
    <path
       d="m 2.947,98.807 c 0,3.035 0.202,3.844 0.708,7.182 l 9.204,-1.518 c 3.54,-0.607 6.27,-0.809 10.517,-0.809 h 14.766 c 5.36,0 7.686,0 11.529,0.607 l 6.979,1.111 c 2.832,0.404 6.372,0.709 8.394,0.709 h 22.553 c 0.708,-3.742 0.91,-4.754 1.213,-8.092 H 69.897 c -4.551,0 -5.765,0.203 -9.81,0.709 l -9.304,1.111 c -6.675,0.809 -6.776,0.91 -11.529,0.91 H 24.185 c -6.068,0 -7.08,0 -12.44,-0.707 z M 2.834,94.047 8.295,93.035 C 9.812,92.732 13.655,92.53 17.7,92.53 h 22.755 c 6.473,0 11.327,0.202 13.956,0.607 l 7.282,1.113 c 3.641,0.505 6.675,0.708 11.125,0.708 h 15.878 c -0.303,-3.439 -0.405,-4.45 -0.911,-7.99 H 72.313 c -4.349,0 -4.349,0 -9.001,0.606 l -9.81,1.315 c -4.146,0.606 -4.146,0.606 -9.203,0.606 H 15.375 c -3.236,0 -3.438,0 -7.687,-0.708 L 3.34,88.181 Z m 1.928,15.582 c 1.214,3.641 1.618,4.451 3.135,7.688 l 8.191,-0.506 c 5.967,-0.404 8.395,-0.506 9.912,-0.506 h 1.416 c 3.54,0 3.54,0 7.08,0.201 l 5.764,0.305 c 4.854,0.303 4.854,0.303 12.136,0.303 h 31.149 c 1.619,-3.338 1.922,-4.146 3.338,-7.889 l -29.43,-0.102 c -0.607,0 -6.169,0.506 -6.776,0.506 l -9.911,0.809 c -6.068,0.506 -6.068,0.406 -10.619,0.406 h -3.539 c -2.933,0 -4.854,-0.102 -12.339,-0.709 z m 0.093,-26.797 3.944,-0.81 c 3.438,-0.708 5.36,-0.708 10.113,-0.708 h 27.205 c 4.349,0 6.877,0.202 10.012,0.708 l 6.169,1.011 c 2.629,0.405 7.282,0.81 8.192,0.81 H 86.773 C 85.559,80.101 85.155,79.19 83.638,75.752 H 70.086 c -3.641,0 -5.461,0.101 -7.889,0.505 l -6.473,1.214 c -4.55,0.81 -4.55,0.81 -9.304,0.81 H 19.722 c -6.574,0 -6.776,0 -9.811,-0.506 L 7.08,77.269 c -1.011,2.225 -1.315,2.832 -2.225,5.563 z m 4.958,37.41 c 2.528,3.641 3.337,4.551 6.573,7.889 H 74.74 c 3.034,-2.73 3.844,-3.643 6.877,-7.889 z m 0.898,-48.948 3.641,-0.506 c 3.742,-0.506 4.956,-0.708 8.192,-0.708 h 16.89 c 4.854,0 7.483,0.102 11.023,0.607 l 8.395,1.213 c 4.045,0.607 6.574,0.809 9.911,0.809 h 12.844 c -2.832,-3.944 -3.54,-4.854 -6.371,-7.99 H 64.818 c -6.776,0 -7.181,0.101 -10.619,0.81 l -3.944,0.809 c -3.438,0.708 -4.247,0.708 -10.214,0.708 H 22.645 c -3.641,0 -3.539,0.102 -6.27,-0.303 l -1.921,-0.202 c -1.619,1.821 -2.124,2.326 -3.743,4.753 z M 21.245,60.889 c 4.551,-0.91 6.169,-1.112 10.821,-1.112 10.518,0 17.294,1.82 25.182,1.82 H 71.205 C 64.429,56.54 55.731,53.101 45.82,53.101 c -9.304,0 -17.293,2.629 -24.575,7.788 z m -0.617,70.576 c 7.079,4.955 13.653,8.191 25.283,8.191 9.912,0 18.204,-3.439 24.778,-8.191 z m 73.735,-17.592 12.135,-34.589 h 9.506 l 11.328,34.589 h -9.506 l -1.721,-5.967 h -10.619 l -1.719,5.967 z m 16.778,-24.574 -3.438,11.326 h 6.371 z m 51.474,-2.733 h 9.305 v 27.307 h 9 V 86.566 h 9.002 v -7.282 h -27.307 z m -42.677,-7.282 v 7.282 h 9.001 v 27.307 h 9.204 V 86.566 h 8.798 v -7.282 z"
       id="path4"
       inkscape:connector-curvature="0" />
    <path
       d="m 145.828,98.111 c -1.111,-1.821 -1.518,-2.934 -1.518,-4.754 0,-4.349 3.338,-7.484 9.406,-7.484 5.664,0 7.787,2.63 7.787,6.676 v 4.145 h -6.473 c 0,-4.145 0,-5.46 -1.518,-5.46 -1.111,0 -1.922,0.911 -1.922,2.023 0,1.315 1.113,2.528 3.643,4.652 l 6.27,5.26 v -6.271 h 6.574 v 5.158 c 0,3.438 -0.102,3.641 -0.709,5.26 l 2.225,0.506 v 6.066 c -3.74,-0.506 -3.943,-0.605 -5.764,-1.719 -3.236,1.518 -5.359,2.023 -8.799,2.023 -7.889,0 -12.137,-3.439 -12.137,-9.305 0.002,-3.237 0.914,-4.551 2.935,-6.776 z m 10.836,9.807 -5.865,-4.955 c -0.404,0.811 -0.607,1.619 -0.607,2.125 0,1.719 1.721,3.135 4.146,3.135 0.506,0 1.316,-0.102 2.326,-0.305 z"
       id="path6"
       inkscape:connector-curvature="0" />
  </g>
</svg>
