<?xml version="1.0" encoding="UTF-8" standalone="no"?>
<svg
   xmlns:dc="http://purl.org/dc/elements/1.1/"
   xmlns:cc="http://creativecommons.org/ns#"
   xmlns:rdf="http://www.w3.org/1999/02/22-rdf-syntax-ns#"
   xmlns:svg="http://www.w3.org/2000/svg"
   xmlns="http://www.w3.org/2000/svg"
   xmlns:sodipodi="http://sodipodi.sourceforge.net/DTD/sodipodi-0.dtd"
   xmlns:inkscape="http://www.inkscape.org/namespaces/inkscape"
   id="bcg-logo"
   viewBox="0 0 72 29"
   version="1.1"
   sodipodi:docname="bcg2.svg"
   width="72"
   height="29"
   inkscape:version="0.92.5 (2060ec1f9f, 2020-04-08)">
  <metadata
     id="metadata9">
    <rdf:RDF>
      <cc:Work
         rdf:about="">
        <dc:format>image/svg+xml</dc:format>
        <dc:type
           rdf:resource="http://purl.org/dc/dcmitype/StillImage" />
        <dc:title></dc:title>
      </cc:Work>
    </rdf:RDF>
  </metadata>
  <defs
     id="defs7" />
  <sodipodi:namedview
     pagecolor="#ffffff"
     bordercolor="#666666"
     borderopacity="1"
     objecttolerance="10"
     gridtolerance="10"
     guidetolerance="10"
     inkscape:pageopacity="0"
     inkscape:pageshadow="2"
     inkscape:window-width="3492"
     inkscape:window-height="1924"
     id="namedview5"
     showgrid="false"
     inkscape:zoom="7.6129032"
     inkscape:cx="36"
     inkscape:cy="15.5"
     inkscape:window-x="156"
     inkscape:window-y="54"
     inkscape:window-maximized="1"
     inkscape:current-layer="bcg-logo" />
  <path
     d="m 72.262712,14.702603 c 0,-0.1901 0,-0.3869 0,-0.5906 0,-0.2172 -0.0202,-0.4277 -0.0608,-0.6313 -0.0271,-0.2037 -0.0474,-0.4074 -0.061,-0.611 -0.0135,-0.2037 -0.0405,-0.3938 -0.0811,-0.5703 h -11.3032 l -3.4297,5.3969 h 8.6856 c -0.2572,0.9098 -0.6292,1.738 -1.1162,2.4847 -0.4735,0.7332 -1.0417,1.3712 -1.7046,1.9143 v 0.0204 c -0.69,0.5431 -1.4544,0.9708 -2.2931,1.2831 -0.8252,0.2987 -1.7047,0.4481 -2.6381,0.4481 -0.0271,0 -0.0542,0 -0.0813,0 -0.0135,0 -0.0203,0 -0.0203,0 -1.2175,0 -2.3675,-0.2444 -3.4498,-0.7333 -1.0823,-0.4887 -2.0089,-1.1405 -2.7802,-1.9551 -0.7981,-0.8554 -1.4271,-1.8329 -1.8872,-2.9327 -0.46,-1.0997 -0.6899,-2.2741 -0.6899,-3.5232 0,-0.0136 0,-0.0204 0,-0.0204 0,-0.0136 0,-0.0339 0,-0.0611 0,-1.2355 0.2299,-2.3964 0.6899,-3.4825 0.4601,-1.0998 1.0958,-2.0569899 1.9076,-2.8716296 0.7981,-0.81463 1.7385,-1.46633 2.8208,-1.95512 1.0822,-0.48878 2.2322,-0.73317 3.4498,-0.73317 0,0 0.0069,0 0.0203,0 0.0135,0 0.0203,0 0.0203,0 0,0 0.007,0 0.0202,0 0.0271,0 0.0406,0 0.0406,0 0.5141,0 1.0215,0.04757 1.522,0.14257 0.5141,0.08144 1.0079,0.20366 1.4814,0.36658 l -0.1015,-0.04077 c 0.4871,0.17651 0.9403,0.38017 1.3597,0.61097 0.4194,0.23082 0.8117,0.482 1.177,0.75354 v -0.02038 l 1.522,-2.42353 1.522,-2.44391 c -0.5682,-0.39374 -1.1771,-0.74674 -1.8264,-1.05902 -0.6358,-0.31228 -1.2988,-0.57703003 -1.9888,-0.79426003 l -0.1014,-0.04077 c -0.6764,-0.19008 -1.4003,-0.33944 -2.1713,-0.44805 -0.7713,-0.122202 -1.5491,-0.183299 -2.3337,-0.183299 -0.0271,0 -0.0474,0 -0.061,0 0,0 -0.0135,0 -0.0406,0 -0.0134,0 -0.0338,0 -0.0608,0 -0.0136,0 -0.0339,0 -0.061,0 -1.0416,0 -2.0563,0.095032 -3.0439,0.285129 -0.9741,0.19007 -1.9211,0.4752 -2.841,0.85536003 l 0.1217,-0.04077 c -0.8929,0.39374 -1.7248,0.84859 -2.496,1.36453 -0.7711,0.51592 -1.4746,1.09296 -2.1105,1.73109 -0.7576,0.80105 -1.4003,1.58853 -1.9279,2.36244 -0.514,0.80105 -0.9402,1.58175 -1.2783,2.3420697 -0.3383,0.7603 -0.6157,1.5273999 -0.8321,2.3012999 -0.203,0.7468 -0.3856,1.4867 -0.5479,2.2199 -0.3112,1.4392 -0.6359,2.8105 -0.974,4.1139 -0.3383,1.3034 -1.0351,2.4779 -2.0903,3.5233 -0.4058,0.4209 -0.8523,0.8078 -1.3394,1.1609 -0.4734,0.3394 -0.9673,0.6245 -1.4814,0.8553 l -0.0609,0.0407 c -0.514,0.2038 -1.0552,0.3667 -1.6234,0.4889 -0.5547,0.1222 -1.1431,0.1832 -1.7655,0.1832 0,0 -0.0135,0 -0.0406,0 -0.0135,0 -0.0203,0 -0.0203,0 -1.2581,0 -2.4419,-0.2444 -3.5513,-0.7331 -1.1093,-0.4888 -2.0834,-1.1541 -2.9222,-1.9959 -0.8117,-0.801 -1.461,-1.7582 -1.9481,-2.8715 -0.487,-1.127 -0.7305,-2.3218 -0.7305,-3.5845 0,-1.222 0.2367,-2.376 0.7101,-3.4622 0.4736,-1.0997 1.1229,-2.0569099 1.9482,-2.8715496 0.8252,-0.82821 1.7926,-1.48671 2.9019,-1.97548 1.1094,-0.50236 2.2932,-0.75354 3.5514,-0.75354 0.5276,0 1.0416,0.04757 1.5423,0.14257 0.5005,0.08144 0.9943,0.19686 1.4814,0.34621 h -0.0813 c 0.4871,0.14936 0.9336,0.33943 1.3394,0.57025 0.4059,0.21723 0.7982,0.46161 1.177,0.73317 h -0.0406 l 1.5422,-2.42354 1.5626,-2.46427 c -0.5547,-0.38017 -1.1567,-0.72638 -1.8061,-1.03866 -0.6358,-0.31227 -1.3054,-0.57702003 -2.0089,-0.79427003 h -0.0813 c -0.6764,-0.21723 -1.4002,-0.38015 -2.1713,-0.488776 -0.7577,-0.108612 -1.5355,-0.162923 -2.3337,-0.162923 -0.0135,0 -0.0338,0 -0.0609,0 -0.0136,0 -0.0271,0 -0.0406,0 0,0 -0.0069,0 -0.0203,0 -0.0135,0 -0.0203,0 -0.0203,0 -1.2582,0 -2.4757,0.156138 -3.6528,0.468419 -1.1634,0.29869 -2.2592,0.71959003 -3.2874,1.26267003 l 0.0609,-0.02038 c -1.0147,0.51594 -1.9482,1.14726 -2.8005,1.89401 -0.8523,0.74674 -1.6099,1.56817 -2.2729,2.46427 l -0.0405,0.02039 c -0.2706,-0.81464 -0.663,-1.5546 -1.1771,-2.21988 -0.514,-0.67887 -1.1229,-1.24231 -1.8264,-1.69036 h -0.0203 c -0.744,-0.48879 -1.5625,-0.86895 -2.4554,-1.14049003 -0.8928,-0.28512 -1.8264,-0.42769 -2.8004,-0.42769 -0.0407,0 -0.0744,0 -0.1015,0 -0.0271,0 -0.0474,0 -0.0608,0 H 0.26271186 V 28.795603 H 14.670812 c 0.0271,0 0.0541,0 0.0812,0 0.0271,0 0.0474,0 0.0609,0 0.8659,0 1.6911,-0.1086 2.4758,-0.3258 0.7846,-0.2037 1.5287,-0.4956 2.2322,-0.8758 l -0.0609,0.0204 c 0.6629,-0.3666 1.2582,-0.801 1.7858,-1.3034 0.5411,-0.5159 0.9944,-1.0862 1.3596,-1.7108 l 0.0406,-0.0611 c 0.6494,0.7468 1.3732,1.4121 2.1713,1.9959 0.7983,0.5838 1.6439,1.093 2.5367,1.5275 l 0.1015,0.0203 c 0.8929,0.4073 1.8534,0.7264 2.8817,0.9571 1.0281,0.2445 2.0968,0.3667 3.2062,0.3667 0,0 0.007,0 0.0203,0 0.0135,0 0.0271,0 0.0406,0 0.0271,0 0.0474,0 0.0609,0 0.0135,0 0.0338,0 0.0609,0 1.2582,0 2.4825,-0.1561 3.673,-0.4685 1.1906,-0.2987 2.3,-0.7332 3.3281,-1.3033 l -0.0609,0.0611 c 1.0552,-0.5567 2.009,-1.2152 2.8613,-1.9755 0.8524,-0.7739 1.61,-1.6293 2.2729,-2.5661 l 0.0203,-0.0611 c 0.6494,0.9504 1.3934,1.8125 2.2321,2.5865 0.8524,0.7603 1.7724,1.4119 2.7599,1.9552 l 0.0609,0.0406 c 1.0283,0.5431 2.1376,0.964 3.3281,1.2627 1.1905,0.3123 2.4284,0.4685 3.7136,0.4685 0,0 0.007,0 0.0204,0 0.0135,0 0.0338,0 0.0609,0 0.0134,0 0.027,0 0.0405,0 0.0136,0 0.0203,0 0.0203,0 0.9876,0 1.9482,-0.1018 2.8816,-0.3055 0.9336,-0.2038 1.8264,-0.4955 2.6788,-0.8758 0.8658,-0.3665 1.6776,-0.8146 2.4351,-1.3441 0.7577,-0.5431 1.4544,-1.1473 2.0902,-1.8126 0.6493,-0.6516 1.2243,-1.3713 1.725,-2.1587 0.5005,-0.774 0.9267,-1.5954 1.2783,-2.4644 0.3519,-0.8688 0.6224,-1.7786 0.8119,-2.7289 0.2028,-0.9368 0.3043,-1.9144 0.3043,-2.9327 0,-0.0136 0,-0.0272 0,-0.0408 0,-0.0135 0,-0.027 0,-0.0406 z M 6.3304518,12.034703 V 5.7823434 h 6.9199602 c 0.0135,0 0.0203,0 0.0203,0 0.433,0 0.832,0.08144 1.1973,0.24439 0.3653,0.14936 0.6967,0.36658 0.9944,0.65172 h -0.0204 c 0.2841,0.28511 0.5007,0.61097 0.6495,0.97755 0.1622,0.36658 0.2435,0.76033 0.2435,1.18122 0,0 0,0.00699 0,0.02038 0,0.01359 0,0.02039 0,0.02039 0,0.02718 0,0.04077 0,0.04077 0,0 0,0.01359 0,0.04077 0,0.40727 -0.0813,0.80107 -0.2435,1.1811696 -0.1488,0.3666 -0.3586,0.6925 -0.6291,0.9776 h -0.0204 c -0.2841,0.2851 -0.6087,0.5092 -0.974,0.6721 -0.3653,0.1629 -0.7643,0.2444 -1.1973,0.2444 0,0 -0.007,0 -0.0203,0 z m 0,11.5474 v -6.4152 h 8.2592602 c 0.0135,0 0.0203,0 0.0203,0 0.4465,0 0.8659,0.0814 1.2582,0.2443 0.4058,0.163 0.7644,0.3803 1.0755,0.6518 0.2976,0.285 0.5345,0.6245 0.7103,1.0182 0.1759,0.3937 0.2638,0.8078 0.2638,1.2423 0,0 0,0.007 0,0.0204 0,0.4617 -0.088,0.8894 -0.2638,1.2831 -0.1758,0.3937 -0.4194,0.74 -0.7305,1.0386 -0.2976,0.2987 -0.6495,0.5296 -1.0553,0.6924 -0.3923,0.163 -0.8185,0.2445 -1.2785,0.2445 H 6.3304518 Z"
     id="path2"
     inkscape:connector-curvature="0" />
</svg>
