<svg xmlns="http://www.w3.org/2000/svg" width="1107" height="115"><path d="M646.105 188.417c-16.953-4.558-29.229-18.04-33.676-36.982-2.314-9.855-1.527-32.541 1.413-40.728 3.293-9.17 7.085-15.348 12.655-20.616C635.993 81.11 647.297 77 662.5 77c21.092 0 36.339 8.463 44.792 24.862 5.384 10.446 6.216 14.801 6.141 32.138-.06 14.042-.31 16.184-2.656 22.766-6.067 17.024-17.087 27.475-33.47 31.742-7.251 1.889-24.023 1.84-31.202-.09zm31.533-16.706c9.484-4.857 15.303-14.36 17.58-28.711 1.225-7.73.462-20.54-1.639-27.5-4.733-15.681-17.408-24.425-33.715-23.258-20.745 1.484-32.289 18.91-30.473 46 1.644 24.52 14.04 37.392 35.109 36.455 6.192-.275 9.161-.95 13.138-2.986zm81.307 16.404c-18.506-5.922-29.814-19.479-33.588-40.265-1.758-9.68-1.26-25.216 1.082-33.805 5.187-19.015 18.552-32.226 36.36-35.94 7.615-1.588 21.426-1.36 28.485.469 16.927 4.386 27.228 14.247 33.351 31.926 2.539 7.33 2.77 9.215 2.749 22.5-.02 12.961-.303 15.349-2.668 22.5-5.763 17.425-16.525 28.22-32.572 32.67-8.833 2.449-25.46 2.421-33.199-.055zm31.144-15.811c12.339-5.51 18.91-18.722 19.095-38.399.187-19.893-6.411-33.459-19.095-39.258-6.002-2.744-21.56-2.916-27.361-.301-5 2.253-11.27 8.015-14.245 13.093-6.068 10.354-7.33 34.429-2.466 47.054 3.075 7.983 11.643 16.709 18.577 18.92 6.762 2.156 19.416 1.605 25.495-1.11zm188.176 16.154c-8.189-2.205-15.228-6.242-20.719-11.88-10.182-10.458-14.844-23.836-14.838-42.578.006-19.259 4.163-31.47 14.473-42.52C966.406 81.595 978.247 77 994.5 77c32.24 0 51.465 20.919 51.465 56 0 29.016-13.456 49.465-36.5 55.467-7.347 1.914-24.08 1.91-31.2-.009zm31.44-17.06c10.496-5.367 16.39-16.291 17.796-32.985 1.176-13.973-2.448-28.486-9.035-36.181-1.934-2.26-6.093-5.375-9.242-6.921-4.993-2.452-6.873-2.81-14.724-2.803-7.3.007-9.99.454-14.242 2.37-12.212 5.501-19.228 19.595-19.228 38.622 0 18.187 6.393 32.001 17.47 37.752 5.92 3.073 9.169 3.69 17.734 3.37 6.22-.233 8.858-.864 13.472-3.223zm82.108 17.132c-15.917-4.384-26.975-15.336-32.598-32.286-2.267-6.833-2.577-9.45-2.632-22.244-.068-15.834 1.037-21.353 6.397-31.948 8.177-16.16 23.901-25.052 44.301-25.052 26.53 0 43.724 12.673 50.308 37.08 1.207 4.477 1.732 10.204 1.732 18.92 0 8.716-.525 14.443-1.732 18.92-5.12 18.982-17.503 32.045-34.72 36.627-6.64 1.767-24.614 1.757-31.056-.017zm27.129-15.105c3.575-1.062 6.89-3.06 10.167-6.124 8.956-8.377 12.487-19.902 11.656-38.044-.61-13.297-3.137-20.602-9.472-27.375-6.818-7.289-11.862-9.303-23.293-9.303-7.983 0-10.282.381-14.395 2.389-12.861 6.276-18.605 18.359-18.605 39.137 0 21.241 7.677 34.887 22.173 39.411 5.912 1.845 15.383 1.805 21.769-.091zM106 133.5V79h25.79c27.87 0 32.695.631 43.01 5.629 10.702 5.184 19.496 17.046 22.694 30.61 1.949 8.264 1.944 26.62-.009 34.3-5.01 19.708-18.515 33.61-36.284 37.346-3.081.648-15.743 1.115-30.25 1.115H106Zm55.727 36.617c13.329-5.976 20.264-20.91 18.992-40.9-.688-10.82-2.805-17.863-7.037-23.411C166.456 96.332 159.57 94 138.82 94H124v79.172l16.25-.356c14.436-.316 16.833-.617 21.477-2.699zM212 133.5V79h76v15h-59.052l.276 15.25.276 15.25 26.75.266 26.75.267V140h-54v33h61v15h-78zm92-.012V78.976l38.25.262 38.25.262v14l-29.776.265-29.776.265.276 15.235.276 15.235 26.75.266 26.75.267V140h-54v33h61v15h-78v-54.512zm92-.055V78.866l29.75.317c29.645.316 29.77.326 35.296 2.918 3.05 1.43 7.112 3.976 9.026 5.657 9.853 8.651 12.402 27.48 5.55 41-2.992 5.907-7.127 9.624-14.622 13.147-5.227 2.457-6.542 2.61-26.5 3.09l-21 .505-.27 21.25-.27 21.25H396Zm55.98-5.683c6.93-3.54 8.52-6.481 8.52-15.75s-1.59-12.21-8.52-15.75c-4.065-2.077-5.735-2.25-21.692-2.25H413v36h17.288c15.957 0 17.627-.173 21.692-2.25zm81.58 7.032a68107.08 68107.08 0 0 0-19.333-54.57c-.367-1.006 1.678-1.225 9.374-1l9.844.288 14.875 45.23 14.874 45.229 15.153-45.23L593.5 79.5l9.25-.288c7.043-.218 9.24.02 9.206 1-.025.709-8.737 25.138-19.361 54.288l-19.317 53-10.428.282-10.427.281zM839 133.5V79l25.75.015c28.004.016 33.97.782 43.436 5.579 10.75 5.448 19.53 17.48 22.917 31.406 1.877 7.721 1.64 25.977-.442 34-4.873 18.777-17.347 32.078-34.196 36.467-4.551 1.186-11.73 1.533-31.675 1.533H839Zm55 37.255c13.6-6.174 19.976-18.224 19.976-37.755 0-19-5.809-30.38-18.476-36.192-4.453-2.043-6.831-2.332-21.75-2.635L857 93.83V173.202l16.75-.43c12.43-.318 17.653-.839 20.25-2.017zm-825.157 7.27c-10.458-3.159-16.089-13.856-12.39-23.54 1.713-4.487 6.521-9.485 9.124-9.485 2.3 0 1.633 2.632-1.125 4.44-3.276 2.146-6.45 7.36-6.426 10.56.03 4.08 3.506 10.53 7.026 13.037 2.412 1.717 4.573 2.32 8.121 2.267 11.643-.176 17.717-12.508 10.369-21.05-2.096-2.437-3.06-2.754-8.375-2.754-7.855 0-11.167 2.695-11.167 9.085 0 9.103 11.556 13.04 15.558 5.302 2.697-5.214-.077-9.887-5.87-9.887-4.604 0-6.367 5.93-2.486 8.363 2.076 1.3 3.626.065 1.981-1.58-1.98-1.98-1.397-3.953 1.067-3.603 1.828.26 2.25.956 2.25 3.711 0 4.261-2.264 5.93-6.18 4.553-5.765-2.028-5.668-10.357.153-13.133 10.07-4.802 17.933 8.01 9.866 16.077-5.682 5.682-16.591 2.118-19.002-6.209-3.479-12.016 11.466-21.596 22.456-14.395 2.923 1.915 6.214 8.261 6.185 11.926-.027 3.479-3.064 10.229-5.623 12.502-2.413 2.142-8.71 4.816-11.073 4.702-.98-.047-2.978-.447-4.44-.889zm-4.095-46.094c-7.578-4-11.294-13.593-8.302-21.428 1.738-4.55 7.952-10.993 9.614-9.966 1.75 1.081.953 3.024-1.939 4.732-3.149 1.86-6.121 7.163-6.121 10.92 0 1.313 1.012 4.362 2.25 6.775 5.505 10.735 19.722 10.643 25.345-.164 4.553-8.75-3.86-18.421-13.717-15.767-5.562 1.498-7.878 4.117-7.878 8.911 0 5.816 3.493 9.51 8.991 9.51 3.033 0 4.606-.55 5.65-1.977C82.588 118.081 80.488 112 74.677 112c-1.802 0-3.817.54-4.477 1.2-1.839 1.839-1.427 5.608.74 6.768 2.444 1.308 3.775-.401 1.988-2.554-1.794-2.162.361-4.249 2.53-2.45 2.21 1.835 1.97 6.737-.392 8-2.848 1.525-3.893 1.3-6.611-1.419-5.23-5.23-1.436-12.545 6.506-12.545 7.405 0 11.259 8.456 6.837 15-3.231 4.781-8.184 6.031-13.824 3.488-6.624-2.987-9.006-9.366-6.018-16.121 4.898-11.073 20.798-11.283 26.292-.347 2.368 4.712 2.2 8.815-.573 14.073-4.328 8.204-14.56 11.255-22.927 6.838z" style="fill:#000;fill-opacity:1" transform="translate(-53.617 -75.404)"/><path d="M650.5 188.978c-23.84-4.785-37.757-22.868-39.205-50.937-1.37-26.563 8.454-46.83 26.924-55.546 21.43-10.112 50.015-5.25 63.115 10.737 13.844 16.895 16.576 48.814 6.039 70.566-3.568 7.364-12.11 16.25-19.311 20.088-9.984 5.322-25.762 7.46-37.562 5.092zm27.194-17.096c8.913-4.248 13.635-10.682 16.828-22.926 2.394-9.182 1.653-28.196-1.407-36.109-3.065-7.925-7.951-13.887-14.236-17.368-5.054-2.799-6.044-2.979-16.379-2.979-9.481 0-11.579.31-15.194 2.242-5.08 2.715-10.862 8.491-13.331 13.318-6.714 13.122-6.7 37.757.027 50.944 7.68 15.053 27.113 20.78 43.692 12.878zm84.717 16.7c-16.92-3.866-29.327-15.705-35.088-33.483-2.382-7.35-2.914-29.343-.927-38.275 2.415-10.858 6.668-19.051 13.345-25.71 10.12-10.09 24.088-14.85 40.259-13.717 14.376 1.006 22.95 4.552 32.088 13.268 10.347 9.87 14.872 22.756 14.897 42.425.036 28.177-10.942 46.374-32.566 53.984-7.683 2.704-23.512 3.45-32.008 1.509zm24.797-14.7c8.178-2.065 17.218-11.947 20.335-22.231 3.847-12.694 2.761-31.271-2.475-42.344-5.808-12.28-16.222-17.936-31.477-17.095-9.786.54-16.56 3.598-21.97 9.919-12.638 14.763-12.41 48.602.424 63.182 8.096 9.199 20.597 12.245 35.163 8.568zm193.055 14.604c-24.577-5.34-38.368-27.127-37.021-58.486 1.224-28.506 14.654-46.48 38.507-51.535 18.414-3.902 38.123 1.11 49.238 12.522C1039.913 100.151 1046 117.185 1046 133c0 15.71-6.117 33.014-14.985 42.39-11.622 12.289-31.207 17.342-50.752 13.096zm24.832-14.563c8.576-2.186 16.286-10.104 20.048-20.59 4.597-12.812 3.288-35.802-2.61-45.868-6.517-11.119-16.177-15.966-30.459-15.283-7.404.354-9.517.873-14.14 3.47-11.144 6.26-16.05 16.476-16.72 34.81-.61 16.682 1.991 26.686 9.148 35.191 7.014 8.337 21.21 11.716 34.733 8.27zm87.164 14.07c-23.16-6.07-35.56-24.903-35.55-53.993.01-18.946 4.459-32.01 14.547-42.677 17.324-18.318 53.466-18.994 72.122-1.35C1153.737 99.77 1159 114.266 1159 133c0 23.145-8.696 41.291-24.12 50.33-10.752 6.301-28.823 8.278-42.62 4.662zm28.209-14.726c6.927-2.193 14.505-9.907 17.44-17.752 6.697-17.899 4.2-42.02-5.528-53.384-5.555-6.49-12.153-9.397-22.52-9.925-10.642-.542-16.85 1.273-23.064 6.743-8.171 7.192-12.761 19.62-12.761 34.551 0 31.465 19.61 48.26 46.433 39.767zM106.458 186.75c-.263-.688-.36-25.1-.218-54.25l.26-53h26c29.676 0 35.182.905 45.279 7.442 7.263 4.702 11.757 9.843 15.387 17.598 8.012 17.123 7.716 40.093-.74 57.275-6.502 13.213-17.332 21.576-31.95 24.673-9.263 1.962-53.285 2.176-54.017.262zm46.404-13.797c19.128-3.104 28.415-16.337 28.296-40.318-.115-23.172-9.144-35.754-27.724-38.635-3.814-.59-11.884-.945-17.934-.787l-11 .287-.262 38.998c-.144 21.448-.046 39.56.219 40.25.604 1.575 19.137 1.708 28.405.205zM212 133.5V79h76v15h-59v31h54v14h-54V172.971l30.25.264 30.25.265.294 7.25.294 7.25H212Zm92 0V79h76v15h-59v31h54v14h-54V172.971l30.25.264 30.25.265.294 7.25.294 7.25H304Zm92-.091V78.818l28.75.395c27.188.373 29.076.52 34.75 2.718 8.323 3.223 15.432 10.545 17.92 18.455 2.188 6.954 1.766 19.776-.85 25.886-2.28 5.323-8.146 11.48-13.547 14.216-6.841 3.467-14.532 4.512-33.207 4.512H413v43h-17v-54.591ZM452.949 128c6.2-3.484 8.551-7.883 8.551-16 0-8.004-2.732-13.022-8.85-16.254-3.721-1.965-5.985-2.23-21.9-2.566L413 92.806v38.388l17.75-.347c16.747-.327 18.001-.488 22.199-2.847zm99.15 57.75C548.142 175.292 515 80.872 515 80.056c0-.663 3.339-1.056 8.972-1.056h8.971l13.989 42.75c7.694 23.512 14.28 43.987 14.637 45.5.356 1.512 1.03 2.75 1.496 2.75.467 0 3.173-7.313 6.013-16.25 2.84-8.938 9.662-29.413 15.16-45.5L594.236 79h8.989c6.775 0 8.873.308 8.52 1.25-.259.688-9.154 25.212-19.768 54.5L572.68 188h-9.864c-9.31 0-9.912-.126-10.716-2.25zM840 133.49V78.787l26.75.447c23.479.393 27.51.697 32.964 2.49 8.497 2.795 14.01 6.205 19.478 12.05 8.732 9.336 12.818 21.674 12.793 38.636-.039 26.762-11.26 44.939-32.566 52.752-5.385 1.975-8.33 2.21-32.669 2.6l-26.75.43Zm52.653 38.094c15.501-4.826 24.628-24.66 21.505-46.738-3.42-24.184-15.316-32.426-45.658-31.633l-11 .287-.262 38.998c-.144 21.448-.022 39.622.27 40.385.752 1.957 27.91.954 35.145-1.299zM64.5 175.73c-7.178-4.015-10.742-15.493-7.036-22.66 1.86-3.596 7.378-8.285 8.752-7.436.608.376-.438 1.949-2.5 3.757-4.43 3.885-5.72 6.442-5.7 11.294.039 8.924 7.544 15.784 16.419 15.007 4.223-.37 5.484-1.022 8.75-4.523 3.131-3.357 3.815-4.823 3.815-8.179 0-8.548-6.302-13.961-14.468-12.429-11.37 2.133-12.77 16.348-1.906 19.347 5.925 1.636 10.374-1.924 10.374-8.3 0-5.444-8.525-7.788-11.548-3.174-1.89 2.883-.533 6.567 2.417 6.567 2.725 0 3.31-1.145 1.568-3.07-1.915-2.116-.113-3.736 2.107-1.894 4.423 3.671-1.025 9.845-5.88 6.663-4.818-3.157-4.24-9.315 1.134-12.094 8.622-4.459 16.533 7.43 9.787 14.709-3.339 3.603-6.81 4.254-12.037 2.257-7.052-2.693-9.626-10.65-5.588-17.272 2.588-4.245 6.828-6.299 13.005-6.299 4.346 0 5.58.473 8.704 3.335 3.154 2.891 3.7 4.067 4.094 8.826 1.147 13.821-12.143 22.348-24.263 15.568zm2.964-43.055c-4.783-1.85-7.398-4.122-9.508-8.26-3.713-7.284-1.526-17.845 4.515-21.803 4.6-3.014 4.602-.647.002 3.76-4.135 3.962-4.473 4.666-4.473 9.31 0 9.01 6.471 15.754 14.994 15.626 5.754-.087 9.237-1.998 12.05-6.611 6.976-11.44-6.002-23.945-17.069-16.446-8.278 5.609-4.79 17.75 5.098 17.75 4.475 0 7.927-3.543 7.927-8.135 0-6.36-8.296-9.395-11.658-4.264-1.815 2.77-1.24 4.8 1.927 6.797 2.256 1.423 3.418-.069 1.92-2.466-1.024-1.641-.964-2.081.356-2.587 3.528-1.354 4.739 4.833 1.36 6.95-4.538 2.843-10.078-3.049-7.873-8.373C70.44 105.698 83 108.994 83 118.112c0 5.531-3.976 9.888-9.024 9.888-5.552 0-8.7-1.5-10.972-5.225-2.523-4.139-2.54-8.384-.048-12.47 2.862-4.695 6.347-6.573 12.33-6.647 8.93-.11 13.714 4.825 13.714 14.144 0 11.071-11.259 18.846-21.536 14.872Z" style="fill:#000;fill-opacity:1" transform="translate(-53.617 -75.404)"/></svg>