<?xml version="1.0" encoding="UTF-8" standalone="no"?>
<svg
   xmlns:dc="http://purl.org/dc/elements/1.1/"
   xmlns:cc="http://creativecommons.org/ns#"
   xmlns:rdf="http://www.w3.org/1999/02/22-rdf-syntax-ns#"
   xmlns:svg="http://www.w3.org/2000/svg"
   xmlns="http://www.w3.org/2000/svg"
   xmlns:sodipodi="http://sodipodi.sourceforge.net/DTD/sodipodi-0.dtd"
   xmlns:inkscape="http://www.inkscape.org/namespaces/inkscape"
   version="1.2"
   viewBox="0 0 1540 240"
   width="1540"
   height="240"
   id="svg3"
   sodipodi:docname="instacart2.svg"
   inkscape:version="0.92.5 (2060ec1f9f, 2020-04-08)">
  <metadata
     id="metadata9">
    <rdf:RDF>
      <cc:Work
         rdf:about="">
        <dc:format>image/svg+xml</dc:format>
        <dc:type
           rdf:resource="http://purl.org/dc/dcmitype/StillImage" />
        <dc:title></dc:title>
      </cc:Work>
    </rdf:RDF>
  </metadata>
  <defs
     id="defs7" />
  <sodipodi:namedview
     pagecolor="#ffffff"
     bordercolor="#666666"
     borderopacity="1"
     objecttolerance="10"
     gridtolerance="10"
     guidetolerance="10"
     inkscape:pageopacity="0"
     inkscape:pageshadow="2"
     inkscape:window-width="3492"
     inkscape:window-height="1924"
     id="namedview5"
     showgrid="false"
     inkscape:zoom="0.45779221"
     inkscape:cx="770"
     inkscape:cy="121"
     inkscape:window-x="156"
     inkscape:window-y="54"
     inkscape:window-maximized="1"
     inkscape:current-layer="svg3" />
  <path
     id="Layer"
     class="s0"
     d="m 653.4156,186.66879 c 0,32.8 -26.1,57 -73.6,57 -48.8,0 -72.9,-22.6 -77.3,-56.7 h 50.7 c 1.6,12.4 11.1,19.5 26.9,19.5 17,0 25.2,-7.3 25.2,-17.2 0,-9.4 -5.7,-14.8 -21.4,-16 l -20.3,-1.7 c -40.4,-3.3 -56.7,-19.5 -56.7,-49.2 0,-31.899996 26,-55.899996 73.2,-55.899996 45.3,0 67.4,22.2 70.5,53.499996 h -48.1 c -1.2,-10.6 -8.7,-17.2 -23.8,-17.2 -16.1,0 -24.3,6.4 -24.3,16 0,8.3 5.4,13 18.8,14.2 l 20.6,1.9 c 42.2,3.7 59.6,20 59.6,51.8 z m -167.2,-54.9 v 109.1 h -50.7 v -100.1 c 0,-22.2 -10.4,-35.2 -31.4,-35.2 -21.2,0 -33,12.5 -33,35.4 v 99.9 h -50.7 V 69.268794 h 47.6 v 45.299996 h 3.1 c 8.5,-32.299996 26.4,-48.099996 56.6,-48.099996 36.8,0 58.5,23.8 58.5,65.299996 z m -215.4,-72.399996 c -16.5,0 -29.9,-12.7 -29.9,-28.5 0,-15.8 13.4,-28.4999997 29.9,-28.4999997 16.6,0 30,12.6999997 30,28.4999997 0,15.8 -13.4,28.5 -30,28.5 z m -25.2,9.9 h 50.7 V 240.86879 h -50.7 z m 487.6,0 h 44.5 v 40.299996 h -44.5 v 65.3 c 0,19.1 7.7,25.9 25.9,25.9 q 1.6,0 3.1,0 1.5,-0.1 3.1,-0.2 1.5,-0.1 3,-0.3 1.6,-0.2 3.1,-0.4 v 40.8 c -7.9,2 -16,3 -24.1,3 -43.2,0 -64.8,-20.7 -64.8,-58.7 v -75.4 h -20.8 V 74.668794 c 26.4,-2.1 38.2,-14.1 39.1,-41.7 h 32.4 z m 759.7,40.299996 v 65.3 c 0,19.1 7.8,25.9 26,25.9 q 1.5,0 3.1,0 1.5,-0.1 3,-0.2 1.6,-0.1 3.1,-0.3 1.5,-0.2 3,-0.4 v 40.8 c -7.8,2 -15.9,3 -24,3 -43.2,0 -64.9,-20.7 -64.9,-58.7 V 69.268794 c 12.5,-6.1 18.2,-17.2 18.9,-36.3 h 31.8 v 36.3 h 44.6 v 40.299996 z m -80.9,-43.099996 q 1.8,0 3.7,0.1 1.8,0.1 3.6,0.4 1.8,0.3 3.6,0.8 1.8,0.4 3.5,1 v 44.399996 c -6.9,-1.2 -11.8,-1.7 -16.3,-1.7 -26.4,0 -38,10.8 -38,36.5 v 92.9 h -50.7 V 69.268794 h 47 v 47.899996 h 3 c 5.9,-38.899996 20.1,-50.699996 40.6,-50.699996 z m -327.2,102.499996 h 51.5 c -4.8,46.2 -38,74.7 -89.2,74.7 -56.4,0 -91.5,-34.4 -91.5,-87.9 0,-51.6 36.5,-89.299996 92.2,-89.299996 50.7,0 82.3,29.7 87.3,73.799996 h -51.4 c -3.6,-18.9 -15.6,-30.7 -36.6,-30.7 -24.5,0 -40.6,17 -40.6,44.3 0,30.7 17.2,46.5 41.1,46.5 21.4,0 34.4,-12.5 37.2,-31.4 z m -146.9,-40 v 111.9 h -47.9 v -36.5 h -3.1 c -7.3,28.2 -23.1,39.6 -47.4,39.6 -29.7,0 -51.2,-19.1 -51.2,-49.5 0,-26.7 15.6,-43.4 56.4,-50.9 l 23.1,-4.3 c 13.9,-2.6 19.4,-7.1 19.4,-15.5 0,-10.2 -7.1,-17.2 -22.7,-17.2 -15.3,0 -24,7 -25.7,20.5 h -48.6 c 4.7,-38.899996 31.4,-60.599996 75.5,-60.599996 48.8,0 72.2,23.6 72.2,62.499996 z m -50.7,50.6 v -18.1 c -5.9,5 -12.2,7.5 -20.3,9.4 l -9.5,2.1 c -13.4,3.1 -18.8,9.2 -18.8,18.2 0,10.8 7.8,18.1 21.4,18.1 16.1,0 27.2,-8.7 27.2,-29.7 z m 411.1,-50.6 v 111.9 h -47.9 v -36.5 h -3 c -7.4,28.2 -23.2,39.6 -47.5,39.6 -29.7,0 -51.1,-19.1 -51.1,-49.5 0,-26.7 15.5,-43.4 56.3,-50.9 l 23.1,-4.3 c 14,-2.6 19.4,-7.1 19.4,-15.5 0,-10.2 -7.1,-17.2 -22.7,-17.2 -15.3,0 -24,7 -25.7,20.5 h -48.6 c 4.8,-38.899996 31.4,-60.599996 75.5,-60.599996 48.8,0 72.2,23.6 72.2,62.499996 z m -50.7,50.6 v -18.1 c -5.8,5 -12.2,7.5 -20.3,9.4 l -9.4,2.1 c -13.5,3.1 -18.9,9.2 -18.9,18.2 0,10.8 7.8,18.1 21.5,18.1 16,0 27.1,-8.7 27.1,-29.7 z M 186.5156,69.368794 c 0,12.2 -5.8,20.2 -17.9,28 l -76.499997,49.199996 -76.4,-49.199996 c -12.2000002,-7.8 -18.0000002,-15.8 -17.9000002,-28 0,-14.4 10.5,-26 26.2000002,-26 10.5,0 17.9,4.6 24.8,14.4 l 19.7,28.4 V 5.1687943 H 115.7156 V 86.168794 l 19.8,-28.4 c 6.8,-9.8 14.3,-14.4 24.7,-14.4 15.7,0 26.2,11.6 26.3,26 z M 92.115603,158.36879 c 45.399997,0 82.699997,33.9 82.599997,82.5 H 9.6156028 c -0.1,-48.6 37.1000002,-82.5 82.5000002,-82.5 z"
     inkscape:connector-curvature="0"
     style="fill-rule:evenodd;fill:#000000" />
</svg>
