<?xml version="1.0" encoding="UTF-8" standalone="no"?>
<svg
   xmlns:dc="http://purl.org/dc/elements/1.1/"
   xmlns:cc="http://creativecommons.org/ns#"
   xmlns:rdf="http://www.w3.org/1999/02/22-rdf-syntax-ns#"
   xmlns:svg="http://www.w3.org/2000/svg"
   xmlns="http://www.w3.org/2000/svg"
   xmlns:sodipodi="http://sodipodi.sourceforge.net/DTD/sodipodi-0.dtd"
   xmlns:inkscape="http://www.inkscape.org/namespaces/inkscape"
   height="36"
   viewBox="0 0 168 36"
   width="168"
   version="1.1"
   id="svg4"
   sodipodi:docname="lambda.svg"
   style="fill:none"
   inkscape:version="0.92.5 (2060ec1f9f, 2020-04-08)">
  <metadata
     id="metadata10">
    <rdf:RDF>
      <cc:Work
         rdf:about="">
        <dc:format>image/svg+xml</dc:format>
        <dc:type
           rdf:resource="http://purl.org/dc/dcmitype/StillImage" />
        <dc:title></dc:title>
      </cc:Work>
    </rdf:RDF>
  </metadata>
  <defs
     id="defs8" />
  <sodipodi:namedview
     pagecolor="#ffffff"
     bordercolor="#666666"
     borderopacity="1"
     objecttolerance="10"
     gridtolerance="10"
     guidetolerance="10"
     inkscape:pageopacity="0"
     inkscape:pageshadow="2"
     inkscape:window-width="3492"
     inkscape:window-height="1924"
     id="namedview6"
     showgrid="false"
     inkscape:zoom="4.122807"
     inkscape:cx="85.5"
     inkscape:cy="20"
     inkscape:window-x="156"
     inkscape:window-y="54"
     inkscape:window-maximized="1"
     inkscape:current-layer="svg4" />
  <path
     d="m 53.091881,25.683279 h 9.5893 v 4.6319 h -15.0616 V 5.9279787 h 5.4723 z M 0.00952085,-0.1080413 H 36.653881 V 36.478879 H 0.00952085 Z M 3.2490409,33.254179 H 33.405381 V 3.1135987 H 3.2490409 Z m 6.43994,-27.2775703 6.3739001,11.3000703 -7.0921001,13.0871 h 4.5678001 l 4.727,-8.9324 5.0336,8.9324 h 4.6519 L 14.340881,5.9735687 Z M 103.36768,12.225379 c -1.167,-0.027 -2.319,0.2739 -3.327,0.8692 -0.883999,0.5497 -1.650599,1.2731 -2.253799,2.1275 h -0.0721 c -0.7513,-1.8448 -2.5393,-3.0028 -4.7931,-3.0028 -3.0052,0 -4.5438,1.6625 -5.2951,2.787 h -0.1081 l -0.2495,-2.3888 h -4.4355 v 17.6916 h 5.295 v -10.3062 c -0.0173,-0.4675 0.0551,-0.9341 0.2134,-1.3737 0.3215,-0.9118 1.1449,-1.9908 2.5393,-1.9908 1.7189,0 2.5063,1.5197 2.5063,3.7627 v 9.9141 h 5.2952 v -10.3336 c -0.003,-0.4794 0.069,-0.9563 0.213,-1.4132 0.162,-0.5468 0.492,-1.0272 0.942,-1.3719 0.449999,-0.3447 0.996999,-0.5359 1.560999,-0.5459 1.755,0 2.579,1.4832 2.579,4.0544 v 9.6224 h 5.292 v -10.4309 c 0,-5.2822 -2.54,-7.6711 -5.902,-7.6711 z m 41.056,-6.9903603 h 5.439 V 30.299979 h -4.688 l -0.25,-2.6047 h -0.072 c -1.109,1.9908 -3.221,3.0029 -5.475,3.0029 -4.15,0 -7.477,-3.5803 -7.477,-9.0814 -0.036,-5.9692 3.648,-9.4066 7.835,-9.4066 2.148,0 3.828,0.7598 4.615,1.9907 h 0.073 z m 0,14.8620603 c -0.007,-0.3263 -0.031,-0.652 -0.073,-0.9756 -0.321,-1.4831 -1.502,-2.7141 -3.182,-2.7141 -2.47,0 -3.756,2.243 -3.756,5.0301 0,3.0028 1.466,4.8841 3.72,4.8841 0.748,0.0085 1.475,-0.2501 2.054,-0.7305 0.578,-0.4803 0.97,-1.1515 1.107,-1.8955 0.106,-0.4137 0.154,-0.8402 0.145,-1.2673 z m 23.464,-0.2553 v 10.4582 h -4.688 l -0.322,-1.7719 h -0.108 c -1.148,1.4102 -2.945,2.1701 -5.028,2.1701 -3.555,0 -5.673,-2.6047 -5.673,-5.4282 0,-4.5954 4.624,-5.9448 10.304,-5.9448 v -1.0608 c 0,-0.9391 -0.502,-2.2794 -3.194,-2.2794 -1.419,0.0198 -2.819,0.3397 -4.108,0.9391 l -1.743,-3.1456 c 1.22,-0.6869 3.624,-1.5561 6.821,-1.5561 5.851,0 7.739,3.4739 7.739,7.6346 z m -5.335,2.7354 c -3.005,0 -5.442,0.2067 -5.454,2.4314 0,1.4194 1.289,1.8023 2.509,1.8023 0.624,0.0047 1.232,-0.1883 1.741,-0.552 0.509,-0.3636 0.893,-0.8796 1.096,-1.4752 0.074,-0.3074 0.11,-0.6228 0.108,-0.9391 z m -32.755,-1.4467 c 0,6.3642 -3.955,9.5433 -7.91,9.5433 -2.013,0 -3.954,-0.7598 -5.19,-2.8538 h -0.051 l -0.21,2.4557 h -4.418 V 5.2502187 h 5.362 v 9.4612603 h 0.069 c 1.024,-1.5196 2.824,-2.4922 5.226,-2.4922 4.132,0 7.167,3.5043 7.134,8.9264 z m -5.476,0.2188 c 0,-2.7353 -1.202,-4.9175 -3.705,-4.9175 -1.448,0 -2.789,1.1215 -3.143,2.711 -0.071,0.3325 -0.107,0.6719 -0.105,1.0121 v 2.6046 c -0.003,0.3283 0.032,0.6558 0.105,0.9757 0.155,0.7293 0.551,1.3837 1.122,1.8563 0.571,0.4725 1.283,0.7353 2.021,0.7453 2.308,0.0152 3.717,-1.7932 3.717,-4.9723 z m -43.874299,-1.5196 v 10.4581 h -4.6699 l -0.3216,-1.7719 h -0.1081 c -1.151,1.4103 -2.9451,2.1701 -5.0276,2.1701 -3.5581,0.0182 -5.6616,-2.5773 -5.6616,-5.4008 0,-4.5954 4.6248,-5.9448 10.3045,-5.9448 v -1.076 c 0,-0.9391 -0.5019,-2.2794 -3.1944,-2.2794 -1.4182,0.0195 -2.8166,0.3394 -4.105,0.9391 l -1.746,-3.1456 c 1.2231,-0.6869 3.6272,-1.5561 6.8246,-1.5561 5.839,0 7.7262,3.4739 7.7262,7.6346 z m -5.3341,2.7353 c -3.0051,0 -5.4422,0.2067 -5.4542,2.4315 0,1.4193 1.2892,1.8023 2.5092,1.8023 0.6233,0.0051 1.2323,-0.1877 1.7414,-0.5515 0.5089,-0.3637 0.8921,-0.8799 1.0955,-1.4757 0.0736,-0.3075 0.1099,-0.6229 0.1081,-0.9392 z"
     id="path2"
     inkscape:connector-curvature="0"
     style="fill:#000000" />
</svg>
